# xmcd
#
# Track frame offsets:
#	150
#	6075
#	12000
#	17925
#	22275
#	29325
#	33750
#	39375
#	44175
#	49200
#	54450
#	60000
#	67950
#	72300
#	78300
#	84150
#	91575
#	99600
#	106125
#	112425
#	120750
#	127800
#	132225
#	137850
#	142650
#	147675
#	152925
#	158475
#	166425
#	170775
#	176775
#	182625
#	190050
#	198075
#	204600
#	210900
#
# Disc length: 2921 seconds
#
# Revision: 1
# Processed by: cddbd v1.5.2PL0 Copyright (c) Steve Scherf et al.
# Submitted via: EasyCDDAExtractor 12.0.0.1
#
DISCID=e70b6724
DTITLE=Lanfranco Perini - Crescere con il flauto dolce 1
DYEAR=1900
DGENRE=
TTITLE0=Fast Beat - 1a versione
TTITLE1=Fast Beat - 2a versione
TTITLE2=Fast Beat - 3a versione
TTITLE3=Tema dal "The Deum"
TTITLE4=La mia prima nota
TTITLE5=Batti quattro
TTITLE6=Girotondo
TTITLE7=Il bidello infuriato
TTITLE8=Un dolce pensiero
TTITLE9=Il banchetto nuziale
TTITLE10=Il principe solitario
TTITLE11=Variazioni sul canone di Pachelbel
TTITLE12=Nel saloon
TTITLE13=Un tranquillo pic-nic
TTITLE14=I ricordi di nonno Arsenio
TTITLE15=Zio Gaetano in discoteca
TTITLE16=Sayonara
TTITLE17=Alla luna
TTITLE18=Onda
TTITLE19=Oh when the saints
TTITLE20=La mia prima nota (base)
TTITLE21=Batti quattro (base)
TTITLE22=Girotondo (base)
TTITLE23=Il bidello infuriato (base)
TTITLE24=Un dolce pensiero (base)
TTITLE25=Il banchetto nuziale (base)
TTITLE26=Il principe solitario (base)
TTITLE27=Variazioni sul canone di Pachelbel (base)
TTITLE28=Nel saloon (base)
TTITLE29=Un tranquillo pic-nic (base)
TTITLE30=I ricordi di nonno Arsenio (base)
TTITLE31=Zio Gaetano in discoteca (base)
TTITLE32=Sayonara (base)
TTITLE33=Alla luna (base)
TTITLE34=Onda (base)
TTITLE35=Oh when the saints (base)
EXTD=
EXTT0=
EXTT1=
EXTT2=
EXTT3=
EXTT4=
EXTT5=
EXTT6=
EXTT7=
EXTT8=
EXTT9=
EXTT10=
EXTT11=
EXTT12=
EXTT13=
EXTT14=
EXTT15=
EXTT16=
EXTT17=
EXTT18=
EXTT19=
EXTT20=
EXTT21=
EXTT22=
EXTT23=
EXTT24=
EXTT25=
EXTT26=
EXTT27=
EXTT28=
EXTT29=
EXTT30=
EXTT31=
EXTT32=
EXTT33=
EXTT34=
EXTT35=
PLAYORDER=
